<svg width="190" height="59" viewBox="0 0 190 59" fill="none" xmlns="http://www.w3.org/2000/svg">
<rect x="0.886719" y="5.15479" width="183.065" height="53.8149" rx="13.5839" transform="rotate(-0.298864 0.886719 5.15479)" fill="#F6F5F1"/>
<rect x="4.50391" y="0.961426" width="184.331" height="53.8149" rx="13.4537" transform="rotate(-0.298864 4.50391 0.961426)" fill="#CCFFFE"/>
<rect x="15.3086" y="8.979" width="37.6704" height="37.6704" rx="8.64567" transform="rotate(-0.298864 15.3086 8.979)" fill="#4B55FD"/>
<path d="M37.4031 23.2633L41.254 26.9792L37.4031 30.6951L33.557 26.9792L29.7109 30.6951L37.4031 38.1316L48.9462 26.9792L41.254 19.5474L37.4031 23.2633Z" fill="#CCFFFE"/>
<path d="M33.557 26.9797L30.1839 23.7208C29.9211 23.4669 29.5007 23.4669 29.2379 23.7208L26.3378 26.5227C26.075 26.7766 26.075 27.1828 26.3378 27.4367L29.7109 30.6956L25.8648 34.4115L22.3102 30.9772C20.0216 28.7661 20.0216 25.184 22.3102 22.973L25.5686 19.8248C27.8571 17.6137 31.5647 17.6137 33.8532 19.8248L37.4079 23.2592L33.5618 26.9751L33.557 26.9797Z" fill="white"/>
<rect opacity="0.2" x="61.0859" y="15.4673" width="108.975" height="6.72686" transform="rotate(-0.298864 61.0859 15.4673)" fill="#5A5858"/>
<rect opacity="0.1" x="61.1523" y="27.5767" width="80.7224" height="4.03612" transform="rotate(-0.298864 61.1523 27.5767)" fill="#5A5858"/>
<rect opacity="0.1" x="61.1914" y="35.647" width="60.5418" height="4.03612" transform="rotate(-0.298864 61.1914 35.647)" fill="#5A5858"/>
</svg>
