<svg width="23" height="22" viewBox="0 0 23 22" fill="none" xmlns="http://www.w3.org/2000/svg">
<g id="flat-color-icons:google">
<path id="Vector" d="M20.491 9.20536H19.7526V9.16732H11.5026V12.834H16.6831C15.9274 14.9684 13.8965 16.5007 11.5026 16.5007C8.46523 16.5007 6.0026 14.038 6.0026 11.0007C6.0026 7.96328 8.46523 5.50065 11.5026 5.50065C12.9046 5.50065 14.1802 6.02957 15.1514 6.89353L17.7442 4.30073C16.107 2.77494 13.9171 1.83398 11.5026 1.83398C6.44031 1.83398 2.33594 5.93836 2.33594 11.0007C2.33594 16.0629 6.44031 20.1673 11.5026 20.1673C16.5649 20.1673 20.6693 16.0629 20.6693 11.0007C20.6693 10.386 20.606 9.78607 20.491 9.20536Z" fill="#FFC107"/>
<path id="Vector_2" d="M3.39062 6.73403L6.40233 8.94273C7.21725 6.92515 9.19083 5.50065 11.5004 5.50065C12.9024 5.50065 14.178 6.02957 15.1492 6.89353L17.742 4.30073C16.1048 2.77494 13.9149 1.83398 11.5004 1.83398C7.97946 1.83398 4.92604 3.82178 3.39062 6.73403Z" fill="#FF3D00"/>
<path id="Vector_3" d="M11.5005 20.166C13.8682 20.166 16.0196 19.2599 17.6463 17.7863L14.8092 15.3856C13.8579 16.109 12.6956 16.5003 11.5005 16.4993C9.11622 16.4993 7.09176 14.979 6.32909 12.8574L3.33984 15.1605C4.85693 18.1292 7.93784 20.166 11.5005 20.166Z" fill="#4CAF50"/>
<path id="Vector_4" d="M20.4884 9.20406H19.75V9.16602H11.5V12.8327H16.6805C16.319 13.8485 15.6678 14.7362 14.8073 15.3861L14.8087 15.3851L17.6458 17.7859C17.445 17.9683 20.6667 15.5827 20.6667 10.9993C20.6667 10.3847 20.6034 9.78477 20.4884 9.20406Z" fill="#1976D2"/>
</g>
</svg>
